# xmcd
#
# Track frame offsets:
#	150
#	14804
#	30635
#	48316
#	59290
#	76848
#	95034
#	115119
#	136741
#	152563
#	171133
#	183279
#
# Disc length: 2686 seconds
# Revision: 0
# Processed by: cddbd v1.5.2PL0 Copyright (c) Steve Scherf et al.
# Submitted via: dBpowerAMP V12.0
#
DISCID=920a7c0c
DTITLE=The HillBenders - Can You Hear Me?
DYEAR=2012
DGENRE=Country
TTITLE0=Train Whistle 
TTITLE1=Concrete Ribbon
TTITLE2=Radio
TTITLE3=Town Away
TTITLE4=Talking In Your Sleep
TTITLE5=Spinning in Circles
TTITLE6=Past The Point of Rescue
TTITLE7=Gettysburg
TTITLE8=Heartache Thunderstorm
TTITLE9=Broken Promises
TTITLE10=Clutch
TTITLE11=Game Over 
EXTD=
EXTT0=
EXTT1=
EXTT2=
EXTT3=
EXTT4=
EXTT5=
EXTT6=
EXTT7=
EXTT8=
EXTT9=
EXTT10=
EXTT11=
PLAYORDER=
